<?xml version="1.0" encoding="utf-8"?>
<!-- Generator: Adobe Illustrator 18.1.1, SVG Export Plug-In . SVG Version: 6.00 Build 0)  -->
<svg version="1.1" xmlns="http://www.w3.org/2000/svg" xmlns:xlink="http://www.w3.org/1999/xlink" x="0px" y="0px"
	 viewBox="-249.1 239.2 185.1 36.9" enable-background="new -249.1 239.2 185.1 36.9" xml:space="preserve">
<g id="Calque_1">
	<g>
		<g>
			<path fill="#1A171B" d="M-130.9,267.2h2.5v-1.3h-3.9v9.1h3.9v-1.3h-2.5V271h2v-1.3h-2V267.2z M-138.2,267.2h1.5v7.8h1.4v-7.8h1.5
				v-1.3h-4.4V267.2z M-141.7,267.2c0.5,0,0.7,0.2,0.7,0.9v1.4c0,0.7-0.2,0.9-0.7,0.9h-0.7v-3.1L-141.7,267.2L-141.7,267.2z
				 M-141.7,265.8h-2.1v9.1h1.4v-3.4h0.7c1.4,0,2.1-0.8,2.1-2.3v-1.2C-139.5,266.6-140.2,265.8-141.7,265.8 M-148.5,275h1.4v-3
				l1.8-6.1h-1.4l-1.1,4.2l-1.1-4.2h-1.5l1.8,6.1L-148.5,275L-148.5,275z M-153.5,271.2h0.7v1.7c0,0.7-0.3,0.9-0.7,0.9
				s-0.7-0.2-0.7-0.9v-4.9c0-0.7,0.3-0.9,0.7-0.9s0.7,0.2,0.7,0.9v1h1.4V268c0-1.5-0.7-2.3-2.1-2.3c-1.4,0-2.1,0.8-2.1,2.3v4.7
				c0,1.5,0.7,2.3,2.1,2.3c1.4,0,2.1-0.8,2.1-2.3v-2.9h-2L-153.5,271.2L-153.5,271.2z M-159.8,267.2h2.5v-1.3h-3.9v9.1h3.9v-1.3
				h-2.5V271h2v-1.3h-2V267.2z M-163.7,267.2l-0.4,1.3h0.6l0.6-1.4v-1.2h-1.4v1.4L-163.7,267.2L-163.7,267.2z M-168,267.2
				c0.5,0,0.7,0.2,0.7,0.9v4.7c0,0.7-0.3,0.9-0.7,0.9h-0.8v-6.5H-168z M-170.3,275h2.3c1.4,0,2.1-0.8,2.1-2.3v-4.6
				c0-1.5-0.7-2.3-2.1-2.3h-2.3V275z"/>
			<path fill="#1A171B" d="M-76,255.2c0,2.6,2.8,3,2.8,4.8c0,0.7-0.3,0.9-0.7,0.9c-0.5,0-0.7-0.2-0.7-0.9v-0.6H-76v0.6
				c0,1.5,0.7,2.3,2.1,2.3s2.1-0.8,2.1-2.3c0-2.6-2.8-3-2.8-4.8c0-0.7,0.3-0.9,0.7-0.9c0.5,0,0.7,0.2,0.7,0.9v0.4h1.4v-0.3
				c0-1.5-0.7-2.3-2.1-2.3C-75.3,252.9-76,253.7-76,255.2 M-79,262.1h1.4V253H-79V262.1z M-84.9,254.3h1.5v7.8h1.4v-7.8h1.5V253
				h-4.4V254.3z M-90.7,253v6.9c0,1.5,0.7,2.3,2.1,2.3c1.4,0,2.1-0.8,2.1-2.3V253h-1.4v7c0,0.7-0.3,0.9-0.7,0.9s-0.7-0.2-0.7-0.9v-7
				H-90.7z M-96.6,259.9c0,1.5,0.8,2.3,2.2,2.3c1.4,0,2.2-0.8,2.2-2.3v-4.7c0-1.5-0.8-2.3-2.2-2.3c-1.4,0-2.2,0.8-2.2,2.3V259.9z
				 M-95.2,255.1c0-0.7,0.3-0.9,0.7-0.9c0.5,0,0.7,0.2,0.7,0.9v4.9c0,0.7-0.3,0.9-0.7,0.9c-0.5,0-0.7-0.2-0.7-0.9V255.1z
				 M-101.8,262.1h3.8v-1.3h-2.4V253h-1.4V262.1z M-105.5,258.3h0.7v1.7c0,0.7-0.3,0.9-0.7,0.9s-0.7-0.2-0.7-0.9v-4.9
				c0-0.7,0.3-0.9,0.7-0.9s0.7,0.2,0.7,0.9v1h1.4v-0.9c0-1.5-0.7-2.3-2.1-2.3c-1.4,0-2.1,0.8-2.1,2.3v4.7c0,1.5,0.7,2.3,2.1,2.3
				c1.4,0,2.1-0.8,2.1-2.3V257h-2L-105.5,258.3L-105.5,258.3z M-110.9,262.1h1.5V253h-1.3v5.5l-1.5-5.5h-1.8v9.1h1.3v-6.6
				L-110.9,262.1z M-118,254.3h2.5V253h-3.9v9.1h3.9v-1.3h-2.5v-2.7h2v-1.3h-2V254.3z M-128.1,255.2c0,2.6,2.8,3,2.8,4.8
				c0,0.7-0.3,0.9-0.7,0.9c-0.5,0-0.7-0.2-0.7-0.9v-0.6h-1.4v0.6c0,1.5,0.7,2.3,2.1,2.3s2.1-0.8,2.1-2.3c0-2.6-2.8-3-2.8-4.8
				c0-0.7,0.3-0.9,0.7-0.9s0.7,0.2,0.7,0.9v0.4h1.4v-0.3c0-1.5-0.7-2.3-2.1-2.3S-128.1,253.7-128.1,255.2 M-132.1,254.3h2.5V253
				h-3.9v9.1h3.9v-1.3h-2.5v-2.7h2v-1.3h-2V254.3z M-137.4,254.3c0.5,0,0.7,0.3,0.7,0.9v0.9c0,0.7-0.3,1-0.9,1h-0.6v-2.8
				L-137.4,254.3L-137.4,254.3z M-135.1,262.1c-0.1-0.3-0.2-0.7-0.2-1.1v-1.4c0-1-0.2-1.6-1-1.9c0.6-0.3,0.9-0.9,0.9-1.8v-0.7
				c0-1.4-0.6-2.1-2.1-2.1h-2.2v9.1h1.4v-3.7h0.5c0.7,0,0.9,0.3,0.9,1.2v1.4c0,0.7,0.1,0.9,0.1,1.1
				C-136.6,262.1-135.1,262.1-135.1,262.1z M-143.7,254.3h2.5V253h-3.9v9.1h3.9v-1.3h-2.5v-2.7h2v-1.3h-2V254.3z M-151,254.3h1.5
				v7.8h1.4v-7.8h1.5V253h-4.4V254.3z M-156.6,255.2c0,2.6,2.8,3,2.8,4.8c0,0.7-0.3,0.9-0.7,0.9c-0.5,0-0.7-0.2-0.7-0.9v-0.6h-1.4
				v0.6c0,1.5,0.7,2.3,2.1,2.3c1.4,0,2.1-0.8,2.1-2.3c0-2.6-2.8-3-2.8-4.8c0-0.7,0.3-0.9,0.7-0.9c0.5,0,0.7,0.2,0.7,0.9v0.4h1.4
				v-0.3c0-1.5-0.7-2.3-2.1-2.3S-156.6,253.7-156.6,255.2 M-161,262.1h1.4v-3l1.8-6.1h-1.4l-1.1,4.2l-1.1-4.2h-1.5l1.8,6.1
				L-161,262.1L-161,262.1z M-168.3,253h-2v9.1h1.3v-6.5l1.1,6.5h1.4l1-6.5v6.5h1.4V253h-2l-1,6.5L-168.3,253z"/>
		</g>
		<path fill="#00D6C7" d="M-192.6,258.4c0,6.2,6.7,7,6.7,11.5c0,1.5-0.7,2.1-1.8,2.1s-1.8-0.6-1.8-2.1v-1.5h-3.2v1.3
			c0,3.5,1.7,5.5,5.1,5.5c3.3,0,5.1-2,5.1-5.5c0-6.2-6.7-7-6.7-11.5c0-1.5,0.6-2.1,1.7-2.1c1.1,0,1.7,0.6,1.7,2.1v0.9h3.2v-0.7
			c0-3.5-1.7-5.5-5-5.5C-190.9,252.9-192.6,254.9-192.6,258.4 M-199.5,274.8h3.4v-21.7h-3.4V274.8z M-208.5,256.2
			c1.2,0,1.7,0.7,1.7,2.2v2.1c0,1.7-0.8,2.3-2,2.3h-1.3v-6.7H-208.5z M-202.9,274.8c-0.3-0.8-0.4-1.6-0.4-2.6v-3.3
			c0-2.3-0.6-3.9-2.3-4.6c1.5-0.7,2.2-2.2,2.2-4.4v-1.7c0-3.3-1.5-5-5-5h-5.1v21.7h3.4V266h1.2c1.5,0,2.2,0.7,2.2,2.8v3.4
			c0,1.8,0.1,2.1,0.3,2.7L-202.9,274.8L-202.9,274.8z M-220.7,274.8h3.4v-21.7h-3.4V274.8z M-234.2,258.4c0,6.2,6.7,7,6.7,11.5
			c0,1.5-0.7,2.1-1.8,2.1c-1.1,0-1.8-0.6-1.8-2.1v-1.5h-3.2v1.3c0,3.5,1.7,5.5,5.1,5.5s5.1-2,5.1-5.5c0-6.2-6.7-7-6.7-11.5
			c0-1.5,0.6-2.1,1.7-2.1s1.7,0.6,1.7,2.1v0.9h3.2v-0.7c0-3.5-1.7-5.5-5-5.5C-232.5,252.9-234.2,254.9-234.2,258.4 M-248,269.6
			c0,3.5,1.8,5.5,5.2,5.5s5.2-2,5.2-5.5v-11.3c0-3.5-1.8-5.5-5.2-5.5s-5.2,2-5.2,5.5C-248,258.4-248,269.6-248,269.6z M-244.6,258.1
			c0-1.5,0.7-2.1,1.8-2.1s1.8,0.6,1.8,2.1v11.7c0,1.5-0.7,2.1-1.8,2.1c-1.1,0-1.8-0.6-1.8-2.1V258.1z"/>
		<path fill="#1A171B" d="M-198.1,249.3h1.5v-9.1h-1.3v5.5l-1.5-5.5h-1.8v9.1h1.3v-6.6L-198.1,249.3z M-207.1,247.1
			c0,1.5,0.8,2.3,2.2,2.3c1.4,0,2.2-0.8,2.2-2.3v-4.7c0-1.5-0.8-2.3-2.2-2.3c-1.4,0-2.2,0.8-2.2,2.3V247.1z M-205.6,242.3
			c0-0.7,0.3-0.9,0.7-0.9c0.5,0,0.7,0.2,0.7,0.9v4.9c0,0.7-0.3,0.9-0.7,0.9s-0.7-0.2-0.7-0.9V242.3z M-210.1,249.3h1.4v-9.1h-1.4
			V249.3z M-215.9,241.5h1.5v7.8h1.4v-7.8h1.5v-1.3h-4.4L-215.9,241.5L-215.9,241.5z M-218.8,249.3h1.4v-9.1h-1.4V249.3z
			 M-224.5,242.4c0,2.6,2.8,3,2.8,4.8c0,0.7-0.3,0.9-0.7,0.9c-0.5,0-0.7-0.2-0.7-0.9v-0.7h-1.4v0.6c0,1.5,0.7,2.3,2.1,2.3
			c1.4,0,2.1-0.8,2.1-2.3c0-2.6-2.8-3-2.8-4.8c0-0.7,0.3-0.9,0.7-0.9c0.5,0,0.7,0.2,0.7,0.9v0.4h1.4v-0.3c0-1.5-0.7-2.3-2.1-2.3
			C-223.8,240.1-224.5,240.9-224.5,242.4 M-230.4,247.1c0,1.5,0.8,2.3,2.2,2.3c1.4,0,2.2-0.8,2.2-2.3v-4.7c0-1.5-0.8-2.3-2.2-2.3
			s-2.2,0.8-2.2,2.3L-230.4,247.1L-230.4,247.1z M-228.9,242.3c0-0.7,0.3-0.9,0.7-0.9s0.7,0.2,0.7,0.9v4.9c0,0.7-0.3,0.9-0.7,0.9
			s-0.7-0.2-0.7-0.9V242.3z M-233.9,241.5c0.5,0,0.7,0.2,0.7,0.9v1.4c0,0.7-0.2,0.9-0.7,0.9h-0.7v-3.1H-233.9z M-233.9,240.2h-2.1
			v9.1h1.4v-3.4h0.7c1.4,0,2.1-0.8,2.1-2.3v-1.2C-231.8,241-232.5,240.2-233.9,240.2 M-238.9,240.2l-1.1,3.4l-1.1-3.4h-1.5l1.5,4.4
			l-1.6,4.7h1.3l1.2-3.6l1.2,3.6h1.5l-1.6-4.7l1.5-4.4C-237.6,240.2-238.9,240.2-238.9,240.2z M-246.5,241.5h2.5v-1.3h-3.9v9.1h3.9
			V248h-2.5v-2.7h2V244h-2L-246.5,241.5L-246.5,241.5z"/>
	</g>
</g>
<g id="Layer_2" display="none">
	<g display="inline">
		<g>
			<defs>
				<rect id="SVGID_1_" x="-264" y="232.9" width="200" height="50"/>
			</defs>
			<clipPath id="SVGID_2_">
				<use xlink:href="#SVGID_1_"  overflow="visible"/>
			</clipPath>
			<polygon clip-path="url(#SVGID_2_)" fill="#1A171B" points="-168.3,256.9 -166.3,256.9 -166.3,258.3 -168.3,258.3 -168.3,261 
				-165.8,261 -165.8,262.3 -169.7,262.3 -169.7,253 -165.8,253 -165.8,254.3 -168.3,254.3 			"/>
			<g clip-path="url(#SVGID_2_)">
				<defs>
					<rect id="SVGID_3_" x="-264" y="232.9" width="200" height="50"/>
				</defs>
				<clipPath id="SVGID_4_">
					<use xlink:href="#SVGID_3_"  overflow="visible"/>
				</clipPath>
				<path clip-path="url(#SVGID_4_)" fill="#1A171B" d="M-162.2,257.1h2v3c0,1.5-0.7,2.3-2.2,2.3c-1.4,0-2.2-0.9-2.2-2.3v-4.8
					c0-1.5,0.7-2.3,2.2-2.3c1.4,0,2.2,0.9,2.2,2.3v0.9h-1.4v-1c0-0.7-0.3-0.9-0.8-0.9c-0.5,0-0.8,0.3-0.8,0.9v5
					c0,0.7,0.3,0.9,0.8,0.9c0.5,0,0.8-0.2,0.8-0.9v-1.7h-0.7V257.1z"/>
				<polygon clip-path="url(#SVGID_4_)" fill="#1A171B" points="-157.4,259.2 -159.2,253 -157.7,253 -156.6,257.2 -155.4,253 
					-154,253 -155.9,259.2 -155.9,262.3 -157.4,262.3 				"/>
				<path clip-path="url(#SVGID_4_)" fill="#1A171B" d="M-148.5,255.3v1.2c0,1.5-0.7,2.3-2.2,2.3h-0.7v3.5h-1.5V253h2.2
					C-149.2,253-148.5,253.8-148.5,255.3 M-151.4,254.3v3.2h0.7c0.5,0,0.7-0.2,0.7-0.9v-1.4c0-0.7-0.3-0.9-0.7-0.9H-151.4z"/>
				<polygon clip-path="url(#SVGID_4_)" fill="#1A171B" points="-147.5,253 -142.9,253 -142.9,254.3 -144.5,254.3 -144.5,262.3 
					-145.9,262.3 -145.9,254.3 -147.5,254.3 				"/>
				<polygon clip-path="url(#SVGID_4_)" fill="#1A171B" points="-141.7,254.4 -141.7,253 -140.3,253 -140.3,254.3 -140.9,255.7 
					-141.5,255.7 -141.1,254.4 				"/>
				<path clip-path="url(#SVGID_4_)" fill="#1A171B" d="M-137.3,252.9c1.4,0,2.2,0.9,2.2,2.3v0.3h-1.4v-0.4c0-0.7-0.3-0.9-0.7-0.9
					c-0.5,0-0.7,0.3-0.7,0.9c0,1.9,2.9,2.3,2.9,4.9c0,1.5-0.7,2.3-2.2,2.3c-1.4,0-2.2-0.9-2.2-2.3v-0.6h1.4v0.7
					c0,0.7,0.3,0.9,0.8,0.9s0.8-0.2,0.8-0.9c0-1.9-2.9-2.3-2.9-4.9C-139.5,253.8-138.8,252.9-137.3,252.9"/>
				<path clip-path="url(#SVGID_4_)" fill="#1A171B" d="M-167.8,265.5c1.4,0,2.2,0.9,2.2,2.3v0.3h-1.4v-0.4c0-0.7-0.3-0.9-0.7-0.9
					c-0.5,0-0.7,0.3-0.7,0.9c0,1.9,2.9,2.3,2.9,4.9c0,1.5-0.7,2.3-2.2,2.3c-1.4,0-2.2-0.9-2.2-2.3v-0.6h1.4v0.7
					c0,0.7,0.3,0.9,0.8,0.9c0.5,0,0.8-0.2,0.8-0.9c0-1.9-2.9-2.3-2.9-4.9C-169.9,266.4-169.2,265.5-167.8,265.5"/>
				<path clip-path="url(#SVGID_4_)" fill="#1A171B" d="M-162.6,265.6v7.2c0,0.7,0.3,0.9,0.8,0.9c0.5,0,0.8-0.2,0.8-0.9v-7.2h1.4
					v7.1c0,1.5-0.7,2.3-2.2,2.3c-1.4,0-2.2-0.9-2.2-2.3v-7.1H-162.6z"/>
				<polygon clip-path="url(#SVGID_4_)" fill="#1A171B" points="-156.7,268.2 -156.7,275 -158,275 -158,265.6 -156.2,265.6 
					-154.7,271.2 -154.7,265.6 -153.3,265.6 -153.3,275 -154.9,275 				"/>
				<polygon clip-path="url(#SVGID_4_)" fill="#1A171B" points="-149.7,271.2 -150.1,272.1 -150.1,275 -151.6,275 -151.6,265.6 
					-150.1,265.6 -150.1,269.7 -148.2,265.6 -146.8,265.6 -148.8,269.8 -146.8,275 -148.3,275 				"/>
				<polygon clip-path="url(#SVGID_4_)" fill="#1A171B" points="-143.8,269.6 -141.8,269.6 -141.8,270.9 -143.8,270.9 -143.8,273.6 
					-141.3,273.6 -141.3,275 -145.2,275 -145.2,265.6 -141.3,265.6 -141.3,267 -143.8,267 				"/>
				<polygon clip-path="url(#SVGID_4_)" fill="#1A171B" points="-138.3,268.2 -138.3,275 -139.6,275 -139.6,265.6 -137.8,265.6 
					-136.3,271.2 -136.3,265.6 -135,265.6 -135,275 -136.5,275 				"/>
				<polygon clip-path="url(#SVGID_4_)" fill="#1A171B" points="-127.2,272.3 -126.2,265.6 -124.2,265.6 -124.2,275 -125.6,275 
					-125.6,268.3 -126.6,275 -127.9,275 -129,268.4 -129,275 -130.3,275 -130.3,265.6 -128.3,265.6 				"/>
				<polygon clip-path="url(#SVGID_4_)" fill="#1A171B" points="-120.8,271.9 -122.7,265.6 -121.2,265.6 -120,269.9 -118.9,265.6 
					-117.5,265.6 -119.4,271.9 -119.4,275 -120.8,275 				"/>
				<path clip-path="url(#SVGID_4_)" fill="#1A171B" d="M-114.2,265.5c1.4,0,2.2,0.9,2.2,2.3v0.3h-1.4v-0.4c0-0.7-0.3-0.9-0.7-0.9
					c-0.5,0-0.7,0.3-0.7,0.9c0,1.9,2.9,2.3,2.9,4.9c0,1.5-0.7,2.3-2.2,2.3c-1.4,0-2.2-0.9-2.2-2.3v-0.6h1.4v0.7
					c0,0.7,0.3,0.9,0.8,0.9c0.5,0,0.8-0.2,0.8-0.9c0-1.9-2.9-2.3-2.9-4.9C-116.4,266.4-115.6,265.5-114.2,265.5"/>
				<polygon clip-path="url(#SVGID_4_)" fill="#1A171B" points="-110.7,265.6 -106.2,265.6 -106.2,267 -107.7,267 -107.7,275 
					-109.2,275 -109.2,267 -110.7,267 				"/>
				<polygon clip-path="url(#SVGID_4_)" fill="#1A171B" points="-103.2,269.6 -101.2,269.6 -101.2,270.9 -103.2,270.9 -103.2,273.6 
					-100.7,273.6 -100.7,275 -104.7,275 -104.7,265.6 -100.7,265.6 -100.7,267 -103.2,267 				"/>
				<path clip-path="url(#SVGID_4_)" fill="#1A171B" d="M-96,275c-0.1-0.2-0.1-0.4-0.1-1.1v-1.5c0-0.9-0.3-1.2-1-1.2h-0.5v3.8h-1.5
					v-9.3h2.2c1.5,0,2.2,0.7,2.2,2.1v0.7c0,1-0.3,1.6-1,1.9c0.7,0.3,1,1,1,2v1.4c0,0.5,0,0.8,0.2,1.1H-96z M-97.6,267v2.9h0.6
					c0.5,0,0.9-0.2,0.9-1v-0.9c0-0.7-0.2-1-0.7-1H-97.6z"/>
				<rect x="-92.9" y="265.6" clip-path="url(#SVGID_4_)" fill="#1A171B" width="1.5" height="9.3"/>
				<polygon clip-path="url(#SVGID_4_)" fill="#1A171B" points="-88.3,269.6 -86.3,269.6 -86.3,270.9 -88.3,270.9 -88.3,273.6 
					-85.7,273.6 -85.7,275 -89.7,275 -89.7,265.6 -85.7,265.6 -85.7,267 -88.3,267 				"/>
				<path clip-path="url(#SVGID_4_)" fill="#1A171B" d="M-82.1,265.5c1.4,0,2.2,0.9,2.2,2.3v0.3h-1.4v-0.4c0-0.7-0.3-0.9-0.7-0.9
					s-0.7,0.3-0.7,0.9c0,1.9,2.9,2.3,2.9,4.9c0,1.5-0.7,2.3-2.2,2.3c-1.4,0-2.2-0.9-2.2-2.3v-0.6h1.4v0.7c0,0.7,0.3,0.9,0.8,0.9
					c0.5,0,0.8-0.2,0.8-0.9c0-1.9-2.9-2.3-2.9-4.9C-84.2,266.4-83.5,265.5-82.1,265.5"/>
				<path clip-path="url(#SVGID_4_)" fill="#00D6C7" d="M-192.6,258.4c0,6.2,6.7,7,6.7,11.5c0,1.5-0.7,2.1-1.8,2.1
					c-1.1,0-1.8-0.6-1.8-2.1v-1.5h-3.2v1.3c0,3.5,1.7,5.5,5.1,5.5c3.3,0,5.1-2,5.1-5.5c0-6.2-6.7-7-6.7-11.5c0-1.5,0.6-2.1,1.7-2.1
					c1.1,0,1.7,0.6,1.7,2.1v0.9h3.2v-0.7c0-3.5-1.7-5.5-5-5.5C-190.9,252.9-192.6,254.9-192.6,258.4 M-199.5,274.8h3.4v-21.7h-3.4
					V274.8z M-208.5,256.2c1.2,0,1.7,0.7,1.7,2.2v2.1c0,1.7-0.8,2.3-2,2.3h-1.3v-6.7H-208.5z M-202.9,274.8
					c-0.3-0.8-0.4-1.6-0.4-2.6v-3.3c0-2.3-0.6-3.9-2.3-4.6c1.5-0.7,2.2-2.2,2.2-4.4v-1.7c0-3.3-1.5-5-5-5h-5.1v21.7h3.4V266h1.2
					c1.5,0,2.2,0.7,2.2,2.8v3.4c0,1.8,0.1,2.1,0.3,2.7H-202.9z M-220.7,274.8h3.4v-21.7h-3.4V274.8z M-234.2,258.4
					c0,6.2,6.7,7,6.7,11.5c0,1.5-0.7,2.1-1.8,2.1c-1.1,0-1.8-0.6-1.8-2.1v-1.5h-3.2v1.3c0,3.5,1.7,5.5,5.1,5.5c3.3,0,5.1-2,5.1-5.5
					c0-6.2-6.7-7-6.7-11.5c0-1.5,0.6-2.1,1.7-2.1s1.7,0.6,1.7,2.1v0.9h3.2v-0.7c0-3.5-1.7-5.5-5-5.5
					C-232.5,252.9-234.2,254.9-234.2,258.4 M-248,269.6c0,3.5,1.8,5.5,5.2,5.5s5.2-2,5.2-5.5v-11.3c0-3.5-1.8-5.5-5.2-5.5
					s-5.2,2-5.2,5.5V269.6z M-244.6,258.1c0-1.5,0.7-2.1,1.8-2.1c1.1,0,1.8,0.6,1.8,2.1v11.7c0,1.5-0.7,2.1-1.8,2.1
					c-1.1,0-1.8-0.6-1.8-2.1V258.1z"/>
				<path clip-path="url(#SVGID_4_)" fill="#1A171B" d="M-197.5,249.3h1.5V240h-1.3v5.6l-1.5-5.6h-1.8v9.3h1.3v-6.8L-197.5,249.3z
					 M-206.9,247.1c0,1.5,0.8,2.3,2.2,2.3c1.4,0,2.2-0.9,2.2-2.3v-4.9c0-1.5-0.8-2.3-2.2-2.3c-1.4,0-2.2,0.9-2.2,2.3V247.1z
					 M-205.4,242.1c0-0.7,0.3-0.9,0.8-0.9c0.5,0,0.8,0.3,0.8,0.9v5c0,0.7-0.3,0.9-0.8,0.9c-0.5,0-0.8-0.3-0.8-0.9V242.1z
					 M-210.3,249.3h1.5V240h-1.5V249.3z M-216.4,241.3h1.5v8h1.5v-8h1.5V240h-4.5V241.3z M-219.5,249.3h1.5V240h-1.5V249.3z
					 M-223.5,241.3c0.5,0,0.7,0.3,0.7,1v0.5c0,0.7-0.3,1-0.9,1h-0.6v-2.5H-223.5z M-223.6,245.1c0.7,0,0.9,0.3,0.9,1.1v0.8
					c0,0.7-0.3,0.9-0.8,0.9h-0.8v-2.9H-223.6z M-223.5,240h-2.2v9.3h2.3c1.5,0,2.2-0.8,2.2-2.2v-0.8c0-1-0.3-1.7-1.1-2
					c0.7-0.3,0.9-0.9,0.9-1.9v-0.3C-221.3,240.7-222,240-223.5,240 M-229,249.3h1.5V240h-1.5V249.3z M-234.2,245.3h1.7v4h1.5V240
					h-1.5v4h-1.7v-4h-1.5v9.3h1.5V245.3z M-238.6,240l-1.1,3.4l-1.1-3.4h-1.5l1.5,4.5l-1.6,4.8h1.4l1.2-3.7l1.2,3.7h1.5l-1.6-4.8
					l1.5-4.5H-238.6z M-246.5,241.3h2.5V240h-4v9.3h4V248h-2.5v-2.7h2v-1.3h-2V241.3z"/>
			</g>
		</g>
	</g>
</g>
</svg>
